<svg width="17" height="15" viewBox="0 0 17 15" fill="none" xmlns="http://www.w3.org/2000/svg">
<path d="M1.20461 8.36667C1.27007 8.3773 1.33633 8.3822 1.40262 8.38134L12.6903 8.38134L12.4442 8.49582C12.2036 8.60969 11.9847 8.76467 11.7974 8.95374L8.63201 12.1191C8.21513 12.517 8.14508 13.1572 8.46602 13.6359C8.83954 14.146 9.55586 14.2568 10.066 13.8833C10.1072 13.8531 10.1464 13.8202 10.1832 13.7848L15.9072 8.0608C16.3545 7.61398 16.3549 6.88914 15.9081 6.44182C15.9078 6.44153 15.9075 6.44121 15.9072 6.44092L10.1832 0.716964C9.73552 0.270532 9.01069 0.271533 8.56422 0.719218C8.52909 0.754456 8.49629 0.791948 8.46602 0.831443C8.14508 1.31014 8.21513 1.95033 8.63201 2.34829L11.7916 5.51936C11.9596 5.68751 12.1527 5.82849 12.364 5.93721L12.7075 6.09176L1.46562 6.09176C0.880809 6.07004 0.367727 6.47856 0.257863 7.05338C0.156655 7.67747 0.580515 8.26543 1.20461 8.36667Z" fill="white"/>
</svg>
