<svg width="30" height="30" viewBox="0 0 30 30" fill="none" xmlns="http://www.w3.org/2000/svg">
<circle cx="15" cy="15.0005" r="15" fill="#F1F2FA"/>
<path d="M19.2565 12.8505C19.2633 12.9443 19.2633 13.038 19.2633 13.1318C19.2633 15.9911 17.0539 19.2858 13.0156 19.2858C11.7715 19.2858 10.6157 18.9309 9.64355 18.3148C9.82032 18.3349 9.99026 18.3416 10.1738 18.3416C11.2004 18.3416 12.1454 18.0001 12.9 17.4175C11.9346 17.3974 11.1256 16.7746 10.8469 15.9175C10.9828 15.9376 11.1188 15.951 11.2616 15.951C11.4587 15.951 11.6559 15.9242 11.8395 15.8773C10.8333 15.6764 10.0786 14.8059 10.0786 13.7545V13.7278C10.371 13.8885 10.7109 13.9889 11.0712 14.0023C10.4797 13.6139 10.0922 12.951 10.0922 12.2009C10.0922 11.7992 10.201 11.4309 10.3914 11.1094C11.4723 12.4219 13.0972 13.2791 14.9191 13.3728C14.8851 13.2121 14.8647 13.0447 14.8647 12.8773C14.8647 11.6853 15.8437 10.7144 17.0606 10.7144C17.6929 10.7144 18.2639 10.9755 18.6651 11.3974C19.1613 11.3036 19.6372 11.1228 20.0587 10.8751C19.8956 11.3773 19.5488 11.7992 19.0934 12.067C19.5353 12.0202 19.9636 11.8996 20.3579 11.7322C20.0588 12.1608 19.6848 12.5425 19.2565 12.8505Z" fill="#6D95F2"/>
</svg>
