<svg width="20" height="17" viewBox="0 0 20 17" fill="none" xmlns="http://www.w3.org/2000/svg">
<path d="M17.9437 4.0482C17.9563 4.22586 17.9563 4.40355 17.9563 4.58121C17.9563 9.99996 13.832 16.2436 6.29393 16.2436C3.97158 16.2436 1.81424 15.571 -0.000488281 14.4036C0.329473 14.4416 0.646699 14.4543 0.989355 14.4543C2.90557 14.4543 4.66955 13.8071 6.07818 12.703C4.27615 12.665 2.766 11.4848 2.24568 9.86039C2.49951 9.89844 2.7533 9.92383 3.01982 9.92383C3.38783 9.92383 3.75588 9.87305 4.0985 9.78426C2.22033 9.40351 0.81166 7.75379 0.81166 5.76141V5.71066C1.35732 6.01523 1.99189 6.20559 2.66443 6.23094C1.56037 5.49488 0.837051 4.23855 0.837051 2.81723C0.837051 2.05582 1.04006 1.35785 1.39541 0.748711C3.41318 3.23602 6.44619 4.86035 9.84717 5.03805C9.78373 4.73348 9.74564 4.41625 9.74564 4.09898C9.74564 1.84008 11.5731 0 13.8446 0C15.0248 0 16.0908 0.494922 16.8396 1.29441C17.7659 1.11676 18.6542 0.774102 19.4411 0.30457C19.1365 1.25637 18.4893 2.05586 17.639 2.56344C18.4639 2.47465 19.2634 2.24617 19.9994 1.92895C19.4412 2.74109 18.7431 3.46441 17.9437 4.0482Z" fill="#6D95F2"/>
</svg>
