<svg width="17" height="15" viewBox="0 0 17 15" fill="none" xmlns="http://www.w3.org/2000/svg">
<path d="M1.20461 8.36619C1.27007 8.37681 1.33633 8.38171 1.40262 8.38085L12.6903 8.38086L12.4442 8.49533C12.2036 8.60921 11.9847 8.76418 11.7974 8.95325L8.63201 12.1186C8.21513 12.5166 8.14508 13.1567 8.46602 13.6354C8.83954 14.1456 9.55586 14.2563 10.066 13.8828C10.1072 13.8526 10.1464 13.8197 10.1832 13.7843L15.9072 8.06031C16.3545 7.61349 16.3549 6.88866 15.9081 6.44133C15.9078 6.44104 15.9075 6.44072 15.9072 6.44043L10.1832 0.716476C9.73552 0.270044 9.01069 0.271045 8.56422 0.718729C8.52909 0.753968 8.49629 0.791459 8.46602 0.830955C8.14508 1.30966 8.21513 1.94984 8.63201 2.3478L11.7916 5.51888C11.9596 5.68702 12.1527 5.82801 12.364 5.93673L12.7075 6.09127L1.46562 6.09127C0.880809 6.06956 0.367727 6.47807 0.257863 7.0529C0.156655 7.67699 0.580515 8.26494 1.20461 8.36619Z" fill="white"/>
</svg>
