<svg width="50" height="31" viewBox="0 0 50 31" fill="none" xmlns="http://www.w3.org/2000/svg">
<path d="M49.5121 25.1014V24.501H49.356L49.1754 24.9138L48.9957 24.501H48.838V25.1014H48.9494V24.6486L49.1185 25.0402H49.2332L49.4023 24.647V25.1014H49.5121ZM48.5208 25.1014V24.6038H48.7217V24.5018H48.2109V24.603H48.411V25.1014H48.5208Z" fill="#F79410"/>
<path d="M31.7511 27.6881H18.2324V3.31641H31.7511V27.6881Z" fill="#FF5F00"/>
<path d="M19.0976 15.5C19.0976 10.5563 21.4048 6.15189 24.9986 3.31375C22.2785 1.16225 18.9141 -0.00534556 15.4502 1.83994e-05C6.91672 1.83994e-05 0 6.93912 0 15.5C0 24.0609 6.91672 31 15.4502 31C19.0545 31 22.371 29.7617 24.9986 27.6863C21.4048 24.8473 19.0976 20.4437 19.0976 15.5Z" fill="#EB001B"/>
<path d="M49.9838 15.5C49.9838 24.0609 43.0671 31 34.5344 31C31.07 31.0052 27.7051 29.8377 24.9844 27.6863C28.579 24.8473 30.8862 20.4437 30.8862 15.5C30.8862 10.5563 28.579 6.15189 24.9844 3.31375C27.7051 1.16235 31.07 -0.00520306 34.5344 1.7431e-05C43.0671 1.7431e-05 49.9838 6.93912 49.9838 15.5Z" fill="#F79E1B"/>
</svg>
