<svg width="71" height="23" viewBox="0 0 71 23" fill="none" xmlns="http://www.w3.org/2000/svg">
<path d="M26.7511 0.392395L17.5191 22.4832H11.5157L6.94925 4.84334C6.68819 3.76324 6.42714 3.37084 5.61145 2.91237C4.24111 2.16021 1.99003 1.4725 0 1.04747L0.13012 0.392395H9.82003C11.0594 0.392395 12.1687 1.21063 12.4623 2.6505L14.8435 15.4135L20.7811 0.392395H26.7511ZM50.3379 15.2496C50.3704 9.42482 42.3127 9.09768 42.3453 6.51245C42.3778 5.72684 43.1276 4.87597 44.759 4.67937C45.5747 4.58147 47.8258 4.48358 50.3704 5.66158L51.3821 0.981395C50.011 0.491105 48.2503 0 46.0626 0C40.452 0 36.472 3.01026 36.4394 7.29805C36.4069 10.4715 39.2777 12.2393 41.4312 13.3186C43.6489 14.3987 44.3995 15.0864 44.3995 16.0678C44.367 17.5403 42.638 18.1954 41.0067 18.228C38.1359 18.2606 36.472 17.4424 35.1675 16.8208L34.1233 21.6641C35.4611 22.2857 37.9073 22.8095 40.452 22.8421C46.3896 22.8095 50.3046 19.8318 50.3371 15.2496H50.3379ZM65.1814 22.4497H70.4334L65.8336 0.358947H60.9728C60.4577 0.357845 59.9537 0.509504 59.5243 0.794865C59.0948 1.08023 58.759 1.48656 58.5591 1.96279L50.0118 22.4154H55.9811L57.1562 19.1107H64.4633L65.1814 22.4489V22.4497ZM58.8202 14.6279L61.8211 6.34847L63.55 14.6287H58.8202V14.6279ZM34.8747 0.392395L30.1758 22.4505H24.4667L29.1982 0.391579H34.8747V0.392395Z" fill="url(#paint0_linear_1_11220)"/>
<defs>
<linearGradient id="paint0_linear_1_11220" x1="6.37184" y1="22.1014" x2="65.8005" y2="0.283191" gradientUnits="userSpaceOnUse">
<stop stop-color="#1A1E5A"/>
<stop offset="1" stop-color="#122D98"/>
</linearGradient>
</defs>
</svg>
