<svg width="40" height="10" viewBox="0 0 40 10" fill="none" xmlns="http://www.w3.org/2000/svg">
<path d="M7.26272 3.69702C7.23883 3.62387 7.17614 3.57163 7.10001 3.55969L4.83113 3.23727L3.81014 1.18483C3.7758 1.11616 3.70565 1.07288 3.62952 1.07288C3.55339 1.07288 3.48324 1.11616 3.44891 1.18632L2.44134 3.24473L0.172464 3.58208C0.0963369 3.59402 0.0336441 3.64626 0.00976119 3.71941C-0.0141218 3.79255 0.00677581 3.87315 0.0620051 3.9254L1.70844 5.52108L1.3278 7.781C1.31437 7.85713 1.34571 7.93326 1.40841 7.97804C1.44274 8.00341 1.48453 8.01685 1.52633 8.01685C1.55917 8.01685 1.59051 8.00938 1.62037 7.99296L3.64594 6.91972L5.67748 7.98102C5.70734 7.99595 5.73868 8.00341 5.77003 8.00341C5.88049 8.00341 5.97154 7.91236 5.97154 7.8019C5.97154 7.78548 5.97005 7.77055 5.96557 7.75563L5.573 5.50914L7.20898 3.9045C7.26719 3.85076 7.2866 3.77016 7.26272 3.69702Z" fill="#FFD146"/>
<path d="M15.445 3.53295C15.4211 3.45981 15.3584 3.40757 15.2823 3.39563L13.0134 3.07321L11.9924 1.02076C11.9581 0.952101 11.8879 0.908813 11.8118 0.908813C11.7356 0.908813 11.6655 0.952101 11.6312 1.02226L10.6236 3.08067L8.35471 3.41802C8.27859 3.42996 8.2159 3.4822 8.19201 3.55534C8.16813 3.62849 8.18903 3.70909 8.24426 3.76133L9.89069 5.35701L9.51005 7.61694C9.49662 7.69307 9.52796 7.76919 9.59066 7.81397C9.62499 7.83935 9.66678 7.85278 9.70858 7.85278C9.74142 7.85278 9.77277 7.84532 9.80262 7.8289L11.8282 6.75566L13.8597 7.81696C13.8896 7.83189 13.9209 7.83935 13.9523 7.83935C14.0627 7.83935 14.1538 7.7483 14.1538 7.63784C14.1538 7.62142 14.1523 7.60649 14.1478 7.59156L13.7552 5.34507L15.3912 3.74044C15.4494 3.6867 15.4688 3.60609 15.445 3.53295Z" fill="#FFD146"/>
<path d="M23.6272 3.53295C23.6033 3.45981 23.5406 3.40757 23.4645 3.39563L21.1956 3.07321L20.1746 1.02076C20.1402 0.952101 20.0701 0.908813 19.994 0.908813C19.9178 0.908813 19.8477 0.952101 19.8133 1.02226L18.8058 3.08067L16.5369 3.41802C16.4608 3.42996 16.3981 3.4822 16.3742 3.55534C16.3503 3.62849 16.3712 3.70909 16.4264 3.76133L18.0729 5.35701L17.6922 7.61694C17.6788 7.69307 17.7102 7.76919 17.7728 7.81397C17.8072 7.83935 17.849 7.85278 17.8908 7.85278C17.9236 7.85278 17.955 7.84532 17.9848 7.8289L20.0104 6.75566L22.0419 7.81696C22.0718 7.83189 22.1031 7.83935 22.1345 7.83935C22.2449 7.83935 22.336 7.7483 22.336 7.63784C22.336 7.62142 22.3345 7.60649 22.33 7.59156L21.9374 5.34507L23.5734 3.74044C23.6316 3.6867 23.651 3.60609 23.6272 3.53295Z" fill="#FFD146"/>
<path d="M31.8068 3.53295C31.7829 3.45981 31.7202 3.40757 31.6441 3.39563L29.3752 3.07321L28.3542 1.02076C28.3199 0.952101 28.2497 0.908813 28.1736 0.908813C28.0975 0.908813 28.0273 0.952101 27.993 1.02226L26.9854 3.08067L24.7165 3.41802C24.6404 3.42996 24.5777 3.4822 24.5538 3.55534C24.5299 3.62849 24.5508 3.70909 24.6061 3.76133L26.2525 5.35701L25.8719 7.61694C25.8584 7.69307 25.8898 7.76919 25.9525 7.81397C25.9868 7.83935 26.0286 7.85278 26.0704 7.85278C26.1032 7.85278 26.1346 7.84532 26.1644 7.8289L28.19 6.75566L30.2216 7.81696C30.2514 7.83189 30.2828 7.83935 30.3141 7.83935C30.4246 7.83935 30.5156 7.7483 30.5156 7.63784C30.5156 7.62142 30.5141 7.60649 30.5096 7.59156L30.1171 5.34507L31.753 3.74044C31.8113 3.6867 31.8307 3.60609 31.8068 3.53295Z" fill="#FFD146"/>
<mask id="mask0_1_9989" style="mask-type:alpha" maskUnits="userSpaceOnUse" x="32" y="0" width="6" height="10">
<path d="M32.2732 0H37.2732V9.09086H32.2732V0Z" fill="#FFD146"/>
</mask>
<g mask="url(#mask0_1_9989)">
<path d="M39.9914 3.53295C39.9675 3.45981 39.9048 3.40757 39.8287 3.39563L37.5598 3.07321L36.5388 1.02076C36.5044 0.952101 36.4343 0.908813 36.3582 0.908813C36.282 0.908813 36.2119 0.952101 36.1775 1.02226L35.17 3.08067L32.9011 3.41802C32.825 3.42996 32.7623 3.4822 32.7384 3.55534C32.7145 3.62849 32.7354 3.70909 32.7906 3.76133L34.4371 5.35701L34.0564 7.61694C34.043 7.69307 34.0744 7.76919 34.137 7.81397C34.1714 7.83935 34.2132 7.85278 34.255 7.85278C34.2878 7.85278 34.3192 7.84532 34.349 7.8289L36.3746 6.75566L38.4061 7.81696C38.436 7.83189 38.4673 7.83935 38.4987 7.83935C38.6091 7.83935 38.7002 7.7483 38.7002 7.63784C38.7002 7.62142 38.6987 7.60649 38.6942 7.59156L38.3016 5.34507L39.9376 3.74044C39.9958 3.6867 40.0152 3.60609 39.9914 3.53295Z" fill="#FFD146"/>
</g>
<path d="M39.989 3.53295C39.9652 3.45981 39.9025 3.40757 39.8263 3.39563L37.5575 3.07321L36.5365 1.02076C36.5021 0.952101 36.432 0.908813 36.3558 0.908813C36.2797 0.908813 36.2096 0.952101 36.1752 1.02226L35.1677 3.08067L32.8988 3.41802C32.8227 3.42996 32.76 3.4822 32.7361 3.55534C32.7122 3.62849 32.7331 3.70909 32.7883 3.76133L34.4348 5.35701L34.0541 7.61694C34.0407 7.69307 34.072 7.76919 34.1347 7.81397C34.1691 7.83935 34.2109 7.85278 34.2526 7.85278C34.2855 7.85278 34.3168 7.84532 34.3467 7.8289L36.3723 6.75566L38.4038 7.81696C38.4337 7.83189 38.465 7.83935 38.4963 7.83935C38.6068 7.83935 38.6979 7.7483 38.6979 7.63784C38.6979 7.62142 38.6964 7.60649 38.6919 7.59156L38.2993 5.34507L39.9353 3.74044C39.9935 3.6867 40.0129 3.6061 39.989 3.53295ZM37.9441 5.13162C37.8963 5.17789 37.8754 5.24506 37.8873 5.31074L38.2292 7.27064L36.4648 6.34965C36.4066 6.3183 36.3364 6.3198 36.2767 6.34965L34.5183 7.28109L34.8482 5.3182C34.8587 5.25253 34.8378 5.18685 34.79 5.14057L33.363 3.75536L35.3319 3.4628C35.3975 3.45235 35.4543 3.41205 35.4826 3.35234L36.3573 1.56559L37.244 3.34786C37.2738 3.40757 37.3306 3.44787 37.3962 3.45832L39.3666 3.73894L37.9441 5.13162Z" fill="#FFD146"/>
</svg>
